<svg xmlns="http://www.w3.org/2000/svg" viewBox="-230 -28 2236 561" role="img" aria-label="S4CALC"><title>S4CALC</title><g transform="translate(0.000000,505.000000) scale(0.100000,-0.100000)" fill="#e8edf7" stroke="none"><path d="M2714 5033 c-90 -6 -92 -10 -119 -218 -12 -97 -26 -180 -31 -184 -5
-4 -58 -18 -119 -30 -60 -12 -157 -38 -215 -57 -98 -32 -106 -33 -117 -16
-105 149 -212 288 -226 290 -42 8 -420 -203 -439 -244 -9 -20 0 -49 62 -194
l74 -170 -59 -53 c-32 -28 -63 -55 -70 -59 -6 -4 -47 -48 -90 -97 -43 -50 -85
-91 -91 -91 -7 0 -86 31 -175 69 -129 55 -167 68 -182 60 -45 -25 -252 -388
-245 -431 2 -15 34 -43 97 -85 l94 -63 276 0 276 0 44 72 c512 829 1695 1016
2472 390 953 -768 779 -2263 -326 -2793 -263 -126 -433 -164 -735 -164 -301 1
-498 44 -734 161 -109 54 -100 55 -115 -10 -42 -188 -198 -286 -458 -286 -59
0 -88 -32 -81 -88 5 -48 390 -272 436 -255 11 5 60 63 110 129 50 67 94 124
99 127 5 3 57 -9 115 -28 58 -19 159 -45 224 -58 138 -28 124 -8 149 -215 25
-203 0 -187 286 -187 258 1 269 4 269 74 0 71 32 296 43 307 7 6 50 19 97 28
47 9 145 37 219 62 110 37 136 43 147 32 6 -7 51 -62 98 -123 48 -60 93 -118
101 -127 25 -30 61 -20 188 50 181 102 266 160 272 185 4 15 -18 73 -65 174
-84 181 -83 163 -13 226 64 58 179 177 200 207 19 28 16 28 199 -51 108 -47
169 -69 183 -64 34 10 251 376 251 423 0 24 -17 38 -179 151 -67 47 -121 90
-121 96 0 6 13 50 29 97 16 48 39 131 51 185 13 54 28 103 34 109 6 7 90 22
186 34 141 17 178 25 191 40 27 32 37 363 13 477 -6 29 -21 33 -218 57 -194
24 -175 10 -206 156 -19 92 -53 211 -74 262 -6 13 25 39 146 123 84 58 156
114 160 125 11 31 -160 356 -225 428 -28 30 -37 29 -162 -26 -61 -27 -136 -59
-167 -71 l-57 -23 -151 153 c-82 85 -150 158 -150 163 0 4 34 82 76 171 63
136 74 167 65 184 -21 39 -384 251 -430 251 -17 0 -153 -165 -242 -293 -4 -5
-62 9 -130 31 -68 22 -168 50 -222 62 -119 27 -110 13 -132 227 -14 131 -22
176 -34 187 -18 16 -297 28 -427 19z M2840 4100 c-18 -18 -28 -165 -13 -221 5
-21 41 -31 65 -18 27 14 27 225 1 245 -24 18 -30 17 -53 -6z m60 -146 c0 -16
-16 -19 -25 -4 -3 5 -13 7 -23 4 -9 -3 -6 1 8 9 27 17 40 14 40 -9z M2838
3679 c-17 -9 -18 -42 -18 -459 l0 -450 -37 -19 c-228 -117 -68 -456 168 -357
11 5 94 -69 304 -271 296 -286 317 -302 356 -267 35 32 20 51 -272 338 l-292
286 13 29 c11 27 11 103 -1 141 -6 22 -71 86 -107 104 l-32 17 0 444 c0 390
-2 445 -16 459 -18 18 -41 20 -66 5z m90 -1055 c27 -31 28 -68 2 -94 -42 -42
-115 -31 -134 21 -30 85 71 141 132 73z M6760 3665 c-476 -74 -737 -524 -535
-924 87 -174 224 -272 598 -427 482 -200 613 -304 649 -513 59 -342 -267 -553
-711 -461 -267 55 -457 220 -547 473 -28 81 -46 100 -69 76 -16 -18 37 -518
58 -531 48 -31 328 -103 480 -123 679 -88 1111 159 1109 635 0 260 -124 443
-402 597 -58 32 -187 89 -430 192 -380 160 -495 278 -495 506 0 268 175 411
500 408 324 -2 545 -146 621 -403 19 -66 25 -75 45 -75 23 0 24 3 23 60 -5
279 -12 427 -20 435 -12 12 -328 66 -463 80 -136 13 -306 11 -411 -5z M11615
3670 c-733 -84 -1201 -635 -1135 -1337 84 -890 956 -1332 1979 -1002 168 54
155 35 182 284 30 286 30 290 0 290 -21 0 -29 -12 -60 -90 -132 -329 -379
-486 -766 -487 -477 -2 -833 323 -942 860 -30 147 -25 474 9 619 123 520 452
780 962 760 371 -14 597 -163 706 -464 26 -71 70 -94 70 -36 0 82 -33 489 -40
497 -12 12 -255 62 -415 86 -150 23 -434 33 -550 20z M18725 3670 c-720 -82
-1163 -576 -1142 -1275 25 -846 771 -1327 1742 -1126 263 55 391 104 399 153
16 102 48 458 43 472 -16 41 -43 17 -75 -66 -95 -250 -275 -412 -523 -472
-663 -160 -1182 290 -1216 1054 -30 687 322 1139 902 1157 413 13 704 -156
798 -463 16 -55 22 -64 42 -64 35 0 35 1 20 196 -8 98 -15 207 -15 242 0 89
-5 92 -200 130 -302 60 -591 83 -775 62z M14045 3637 l-59 -22 -47 -155 c-25
-85 -98 -283 -162 -440 -99 -245 -491 -1206 -564 -1385 -85 -205 -183 -305
-300 -305 -7 0 -13 -11 -13 -25 l0 -25 315 0 315 0 0 24 c0 21 -6 25 -47 31
-142 21 -184 98 -138 254 29 95 164 434 180 450 23 23 897 24 918 1 21 -21
193 -444 212 -518 29 -110 0 -152 -124 -182 -53 -13 -66 -20 -66 -36 0 -18 13
-19 428 -22 424 -2 427 -2 427 18 0 11 -6 22 -12 25 -7 2 -39 11 -72 20 -136
38 -147 57 -459 795 -129 305 -250 589 -267 630 -18 41 -104 244 -191 450
-199 468 -186 440 -201 439 -7 0 -40 -10 -73 -22z m77 -808 c252 -588 269
-632 251 -646 -26 -20 -766 -18 -782 1 -13 16 366 978 383 973 5 -2 72 -149
148 -328z M9489 3641 c-27 -6 -97 -87 -659 -766 -119 -143 -311 -378 -428
-522 l-212 -261 0 -96 0 -96 533 -2 532 -3 0 -205 c0 -280 -20 -322 -167 -351
-56 -11 -73 -25 -59 -48 15 -23 796 -10 796 13 0 16 -13 23 -66 36 -148 36
-173 100 -167 415 l3 140 164 5 165 5 7 27 c4 15 9 62 11 105 l3 78 -164 3
c-101 1 -170 7 -178 13 -11 9 -13 153 -13 765 l0 754 -37 -1 c-21 -1 -50 -4
-64 -8z m-229 -985 c0 -468 -2 -525 -16 -530 -25 -9 -827 -7 -843 3 -18 11 84
141 583 745 127 153 235 284 241 292 33 47 35 23 35 -510z M15583 3604 c-9
-23 17 -40 72 -47 118 -17 159 -71 175 -233 13 -130 13 -1641 0 -1762 -16
-146 -50 -190 -170 -220 -61 -15 -75 -22 -75 -38 0 -19 19 -19 862 -22 l863
-2 5 22 c13 57 65 470 60 479 -18 29 -44 6 -75 -68 -117 -280 -219 -328 -700
-328 -396 0 -394 -1 -412 198 -14 155 -4 1781 11 1840 18 70 65 112 138 127
83 17 105 27 101 48 -5 26 -845 32 -855 6z M215 3341 c-82 -20 -161 -85 -191
-157 -22 -53 -21 -2028 1 -2082 20 -47 78 -107 130 -135 l40 -22 765 0 c866 0
800 -6 887 83 77 78 73 24 73 1116 0 630 -4 984 -10 1008 -18 63 -70 129 -130
162 l-55 31 -740 1 c-407 1 -753 -1 -770 -5z m1484 -159 c76 -41 72 28 69
-1047 -3 -1069 3 -988 -74 -1026 -60 -29 -1432 -26 -1477 4 -66 43 -62 -31
-62 1033 0 1085 -7 995 76 1036 54 28 1417 27 1468 0z M321 2424 c-18 -23 -21
-41 -21 -130 0 -150 5 -155 167 -157 171 -3 170 -4 165 191 -3 119 -7 122
-166 122 -123 0 -125 0 -145 -26z M822 2427 c-32 -34 -33 -236 -2 -267 32 -32
272 -30 294 2 28 40 22 238 -7 266 -36 34 -253 33 -285 -1z M1311 2424 c-33
-42 -31 -231 2 -262 34 -32 256 -33 287 -2 32 32 30 237 -3 268 -39 37 -257
33 -286 -4z M329 1991 c-39 -39 -45 -218 -8 -265 28 -36 254 -41 289 -6 35 35
30 251 -6 279 -47 37 -236 31 -275 -8z M845 2008 c-40 -21 -45 -38 -45 -153 0
-153 2 -155 166 -155 162 0 164 2 164 159 0 155 -6 161 -157 161 -59 0 -117
-6 -128 -12z M339 1567 c-30 -23 -39 -56 -39 -146 0 -150 17 -165 183 -159
146 4 147 6 147 158 0 158 -2 160 -161 160 -74 -1 -120 -5 -130 -13z M825
1555 c-34 -33 -38 -227 -6 -266 30 -37 263 -37 292 0 33 41 28 242 -7 270 -43
34 -245 31 -279 -4z M4137 2619 c-32 -18 -9 -80 29 -78 18 0 18 1 -1 9 -18 8
-17 9 8 9 16 1 26 -3 23 -7 -3 -5 14 -9 37 -10 32 -2 39 0 27 8 -15 11 41 10
80 -1 19 -5 27 46 10 66 -14 17 -185 19 -213 4z M2830 1375 c-11 -13 -11 -21
-2 -36 7 -11 8 -19 2 -19 -6 0 -9 -32 -7 -81 3 -91 19 -116 65 -98 22 8 23 12
20 126 l-3 118 -31 3 c-19 2 -36 -3 -44 -13z"/></g><g transform="translate(0.000000,505.000000) scale(0.100000,-0.100000)" fill="#2e3c58" stroke="none"><path d="M2860 3963 c-14 -8 -17 -12 -8 -9 10 3 20 1 23 -4 9 -15 25 -12 25 4
0 23 -13 26 -40 9z M332 3024 c-33 -22 -34 -342 -2 -374 20 -20 33 -20 634
-20 l615 0 21 27 c30 39 25 347 -6 370 -29 21 -1231 19 -1262 -3z M4151 2556
c9 -9 56 -14 68 -7 6 4 -7 8 -30 9 -23 1 -40 0 -38 -2z M4253 2554 c4 -4 26
-9 49 -11 31 -3 39 -1 28 7 -16 11 -88 14 -77 4z"/></g><g transform="translate(0.000000,505.000000) scale(0.100000,-0.100000)" fill="#e26666" stroke="none"><path d="M3618 3298 c-315 -276 -611 -533 -625 -543 -13 -10 41 -85 61 -85 11
0 808 703 813 717 8 21 -25 63 -51 63 -16 0 -79 -49 -198 -152z M1344 2010
c-53 -21 -54 -30 -54 -373 0 -185 4 -326 10 -336 18 -34 63 -44 176 -38 157 8
144 -26 144 373 l0 332 -31 26 c-32 28 -191 38 -245 16z"/></g><g transform="translate(0.000000,505.000000) scale(0.100000,-0.100000)" fill="#f7c969" stroke="none"><path d="M-471.0,5564.6L-361.0,5008.1L195.5,4898.1L-361.0,4788.1L-471.0,4231.6L-581.0,4788.1L-1137.5,4898.1L-581.0,5008.1Z"/><path d="M-1157.8,4461.8L-1081.1,4073.5L-692.8,3996.8L-1081.1,3920.0L-1157.8,3531.8L-1234.6,3920.0L-1622.8,3996.8L-1234.6,4073.5Z"/><path d="M-1610.8,3203.6L-1559.7,2944.8L-1300.8,2893.6L-1559.7,2842.5L-1610.8,2583.6L-1662.0,2842.5L-1920.8,2893.6L-1662.0,2944.8Z"/><path d="M-1798.9,1869.1L-1763.1,1687.9L-1581.9,1652.1L-1763.1,1616.3L-1798.9,1435.1L-1834.7,1616.3L-2015.9,1652.1L-1834.7,1687.9Z"/></g></svg>